<svg width="90" height="90" viewBox="0 0 90 90" fill="none" xmlns="http://www.w3.org/2000/svg">
<rect width="90" height="90" fill="#0D1015"/>
<g clip-path="url(#clip0_192_1220)">
<path d="M58.8992 13.9802L54.5592 11.7202V11.7002H54.5392H54.5292L53.6692 12.2102L38.0292 21.2402V56.1402C35.8192 58.1802 33.9192 60.8602 32.6692 63.7102C31.3792 66.6602 30.8592 69.6102 31.1992 72.0302C31.5592 74.5502 32.8192 76.3302 34.7592 77.0502C35.0092 77.1402 35.2692 77.2002 35.5292 77.2502H35.5692C35.6692 77.2702 35.7692 77.2902 35.8692 77.3002L40.0092 78.0402C41.7292 78.5802 43.8792 78.1902 46.1092 76.9002C48.4292 75.5602 50.6792 73.3402 52.4392 70.6602C54.1992 67.9802 55.3492 65.0102 55.6792 62.3002C56.0092 59.5902 55.4992 57.3202 54.2492 55.9002C52.9892 54.4802 51.0792 54.0202 48.8492 54.5802V33.7802L58.6792 28.1002V22.8702L58.5692 22.9302L58.6792 22.8602L55.4092 21.1602L58.8992 19.1402V13.9802ZM57.5292 14.7702L54.5592 16.4902V13.2202L57.5292 14.7702ZM45.3492 62.2802C45.3492 63.2102 45.0992 64.2502 44.6192 65.3102C44.1392 66.3802 43.4592 67.3802 42.6592 68.2102C42.2892 68.5902 41.8992 68.9202 41.5092 69.2002C41.4792 68.4902 41.5992 67.7002 41.8492 66.8802C42.1992 65.7602 42.7892 64.6402 43.5392 63.6502C44.0692 62.9502 44.6792 62.3502 45.2992 61.8702C45.3092 62.0102 45.3392 62.1402 45.3392 62.2902L45.3492 62.2802ZM53.5592 17.0602L44.7192 22.1602L40.4392 21.0002L53.5592 13.4302V17.0602ZM48.8392 28.5902V25.0002L53.3292 22.4102V26.0002L48.8392 28.5902ZM39.0692 21.7902L43.3692 22.9802V57.7702C43.3692 57.7702 43.3392 57.8002 43.3292 57.8102L39.0292 56.5802V21.8202L39.0692 21.8002V21.7902ZM32.1892 71.9002C31.8692 69.6602 32.3692 66.9002 33.5792 64.1202C34.6592 61.6502 36.2492 59.3202 38.0992 57.4602L42.3392 58.7802C40.5492 60.6402 39.0192 62.9202 37.9592 65.3302C36.6992 68.2002 36.1992 71.0502 36.5292 73.3802C36.6992 74.5502 37.0692 75.5402 37.6192 76.3202C36.6992 76.4502 35.8492 76.3902 35.0992 76.1102C33.5192 75.5302 32.4892 74.0302 32.1792 71.8902L32.1892 71.9002ZM49.3392 60.9202C50.1992 61.3602 50.6892 62.3602 50.6892 63.6902C50.6892 64.6802 50.4192 65.8102 49.9192 66.9302C49.4192 68.0502 48.6992 69.1102 47.8592 69.9702C47.0192 70.8402 46.0992 71.4702 45.2092 71.7902C44.3192 72.1102 43.4992 72.1102 42.8592 71.7702C42.3092 71.4802 41.9192 70.9602 41.6992 70.2602C42.2792 69.9002 42.8492 69.4502 43.3792 68.9002C44.2592 67.9902 45.0092 66.8902 45.5392 65.7202C46.0792 64.5302 46.3592 63.3402 46.3492 62.2802C46.3492 61.9202 46.3092 61.5702 46.2492 61.2602C47.4092 60.6302 48.5192 60.5002 49.3492 60.9302L49.3392 60.9202ZM54.3292 25.4202V22.1502L57.3092 23.7002L54.3292 25.4202Z" fill="#32F2CA"/>
</g>
<defs>
<clipPath id="clip0_192_1220">
<rect width="27.8" height="66.6" fill="white" transform="translate(31.0996 11.7002)"/>
</clipPath>
</defs>
</svg>
