<svg width="104" height="40" viewBox="0 0 104 40" fill="none" xmlns="http://www.w3.org/2000/svg">
<g clip-path="url(#clip0_26_3)">
<mask id="mask0_26_3" style="mask-type:luminance" maskUnits="userSpaceOnUse" x="0" y="0" width="104" height="40">
<path d="M103.333 0H0V40H103.333V0Z" fill="white"/>
</mask>
<g mask="url(#mask0_26_3)">
<path d="M58.4351 16.8514L55.5509 11.2873H53.3012V16.8514H48.9075V0.285156H57.4401C61.2232 0.285156 63.372 2.71917 63.372 5.79789C63.372 8.68039 61.579 10.2174 59.9734 10.764L63.4441 16.8374L58.4351 16.8514ZM58.9158 5.77453C58.9158 4.62994 57.9544 4.01326 56.7959 4.01326H53.3204V7.56383H56.7959C57.9737 7.56383 58.9206 6.94248 58.9206 5.77453H58.9158Z" fill="#0A1627"/>
<path d="M74.5099 16.851V4.01284H69.7028V0.275391H83.6433V4.01284H78.8891V16.851H74.5099Z" fill="#0A1627"/>
<path d="M90.8542 16.8514V0.285156H103.353V4.0226H95.2335V6.60144H103.156V10.3389H95.2335V13.142H103.353V16.8794L90.8542 16.8514Z" fill="#0A1627"/>
<path d="M33.169 3.18561e-05C31.4243 -0.00459083 29.7174 0.493987 28.2644 1.43265C26.8115 2.37131 25.6777 3.70784 25.0068 5.27304C24.3358 6.83824 24.1578 8.56173 24.4952 10.2253C24.8327 11.8889 25.6704 13.4178 26.9024 14.6184C28.1345 15.819 29.7053 16.6373 31.4161 16.9698C33.127 17.3023 34.9008 17.134 36.5132 16.4862C38.1256 15.8384 39.5039 14.7402 40.4737 13.3307C41.4435 11.9212 41.9612 10.2637 41.9612 8.56812C41.9612 6.29977 41.0356 4.12397 39.3875 2.51781C37.7393 0.911652 35.503 0.00621604 33.169 3.18561e-05ZM33.169 13.0017C32.2654 13.0026 31.3818 12.743 30.63 12.2556C29.8783 11.7683 29.2922 11.0752 28.946 10.264C28.5997 9.45287 28.5089 8.56011 28.685 7.69875C28.861 6.83738 29.2961 6.04614 29.935 5.42516C30.574 4.80418 31.3881 4.38139 32.2744 4.21029C33.1607 4.03919 34.0794 4.12747 34.914 4.46397C35.7487 4.80047 36.4619 5.37005 36.9633 6.10063C37.4647 6.8312 37.7319 7.68993 37.7309 8.56812C37.7309 9.74397 37.2503 10.8717 36.3948 11.7031C35.5392 12.5346 34.3789 13.0017 33.169 13.0017Z" fill="#0A1627"/>
<path d="M18.0842 4.00837V0.280273H5.58578V25.1857C3.79045 25.6997 2.24584 26.8252 1.23502 28.3561C0.224197 29.8869 -0.185132 31.7205 0.0820453 33.5208C0.349223 35.3211 1.27501 36.9675 2.68975 38.1584C4.10449 39.3492 5.91342 40.0047 7.78503 40.0047C9.65663 40.0047 11.4656 39.3492 12.8803 38.1584C14.295 36.9675 15.2208 35.3211 15.488 33.5208C15.7552 31.7205 15.3459 29.8869 14.335 28.3561C13.3242 26.8252 11.7796 25.6997 9.98427 25.1857V10.3153H17.9016V6.57787H9.98427V4.00837H18.0842ZM11.4745 32.4363C11.4754 33.1471 11.2594 33.8421 10.8538 34.4335C10.4482 35.025 9.87119 35.4862 9.1958 35.7588C8.52041 36.0314 7.77698 36.1032 7.05958 35.9651C6.34219 35.827 5.68306 35.4852 5.16559 34.983C4.64812 34.4808 4.29557 33.8406 4.15254 33.1436C4.00952 32.4466 4.08244 31.724 4.36209 31.0672C4.64174 30.4105 5.11555 29.8491 5.72356 29.4542C6.33158 29.0592 7.04648 28.8484 7.77782 28.8484C8.7574 28.8484 9.69693 29.2262 10.39 29.899C11.0832 30.5717 11.4732 31.4843 11.4745 32.4363Z" fill="#0A1627"/>
</g>
</g>
<defs>
<clipPath id="clip0_26_3">
<rect width="104" height="40" fill="white"/>
</clipPath>
</defs>
</svg>
